/* XPM */
static char * stork_t2s_xpm[] = {
"24 26 144 2",
"  	c None",
". 	c #DEDCDC",
"+ 	c #BBB3B4",
"@ 	c #E4E2E3",
"# 	c #BAB3B1",
"$ 	c #D58F7F",
"% 	c #E7BDAD",
"& 	c #E2E0DE",
"* 	c #D3CFCB",
"= 	c #D9735D",
"- 	c #E2946E",
"; 	c #E8E7E8",
"> 	c #CACAC5",
", 	c #DB9377",
"' 	c #DAA28C",
") 	c #E7E7E9",
"! 	c #D3D5D3",
"~ 	c #D5DFEB",
"{ 	c #C9D0DE",
"] 	c #D6DAE2",
"^ 	c #E4E4E6",
"/ 	c #DCDDDC",
"( 	c #C8DAED",
"_ 	c #D2DEED",
": 	c #D9E2ED",
"< 	c #CFD8E5",
"[ 	c #C6CEDB",
"} 	c #D0D3D5",
"| 	c #E0E0DF",
"1 	c #E2E1DF",
"2 	c #5377A5",
"3 	c #82A3CA",
"4 	c #809CC4",
"5 	c #9EAABD",
"6 	c #CBD6E4",
"7 	c #D7DFEA",
"8 	c #D7DEE9",
"9 	c #BAC0C5",
"0 	c #C8C7BD",
"a 	c #CCC9BD",
"b 	c #6584A9",
"c 	c #486C9D",
"d 	c #476999",
"e 	c #7B88A9",
"f 	c #DFE3EB",
"g 	c #DCE3EE",
"h 	c #E4E9F1",
"i 	c #E2E7EF",
"j 	c #B1B3B3",
"k 	c #C1BFB0",
"l 	c #C2C0B1",
"m 	c #7790AE",
"n 	c #2B426C",
"o 	c #2C4C80",
"p 	c #576582",
"q 	c #CFD4DE",
"r 	c #E7EAF1",
"s 	c #E7EAEF",
"t 	c #D0DBEA",
"u 	c #ABB5C4",
"v 	c #A8A9A3",
"w 	c #D3D2C7",
"x 	c #D1D1C6",
"y 	c #748596",
"z 	c #475B76",
"A 	c #495673",
"B 	c #8C95A6",
"C 	c #CAD4E0",
"D 	c #ECEEF1",
"E 	c #EFEFF1",
"F 	c #C4D0E2",
"G 	c #778EB4",
"H 	c #405175",
"I 	c #4B535F",
"J 	c #404A59",
"K 	c #B4BBC6",
"L 	c #DCDFE6",
"M 	c #D5DBE4",
"N 	c #CBD1DC",
"O 	c #A7B1C4",
"P 	c #5B6C89",
"Q 	c #575D75",
"R 	c #464E56",
"S 	c #384556",
"T 	c #7F8A9A",
"U 	c #93A0B4",
"V 	c #425976",
"W 	c #2E5182",
"X 	c #284C7C",
"Y 	c #7C7A80",
"Z 	c #C1BFC5",
"` 	c #4D5E76",
" .	c #616E81",
"..	c #697E99",
"+.	c #465776",
"@.	c #425371",
"#.	c #304262",
"$.	c #403137",
"%.	c #B6ADA9",
"&.	c #637791",
"*.	c #4D5D75",
"=.	c #5A677A",
"-.	c #57687F",
";.	c #364259",
">.	c #36445F",
",.	c #2F3342",
"'.	c #AC7061",
").	c #CAB4AA",
"!.	c #5E6C80",
"~.	c #5B6A82",
"{.	c #4C596D",
"].	c #333E4F",
"^.	c #27324A",
"/.	c #424757",
"(.	c #D99B84",
"_.	c #DBC8C0",
":.	c #606A7A",
"<.	c #535D6F",
"[.	c #404857",
"}.	c #2E3749",
"|.	c #484F60",
"1.	c #CB8B74",
"2.	c #CBA497",
"3.	c #6A7077",
"4.	c #697487",
"5.	c #42454E",
"6.	c #30333C",
"7.	c #A68A76",
"8.	c #CA8B71",
"9.	c #C47E6A",
"0.	c #6E7989",
"a.	c #343235",
"b.	c #423F41",
"c.	c #CA9E86",
"d.	c #51504F",
"e.	c #595653",
"f.	c #BA9B86",
"g.	c #BDA591",
"h.	c #C2AD9D",
"i.	c #A7806B",
"j.	c #C8ADA5",
"k.	c #C59982",
"l.	c #BE816E",
"m.	c #C09384",
"                                                ",
"                            . +                 ",
"                            @ # $ %             ",
"                            & *   = -           ",
"                              ; >     , '       ",
"                              ) !               ",
"                      ~ { ] ^ ^ /               ",
"                  ( _ : < [ } | 1               ",
"              2 3 4 5 6 7 8 9 0 a               ",
"            b c d e f g h i j k l               ",
"          m n o p q r s t u v w x               ",
"        y z A B C D E F G H                     ",
"        I J K L M N O P Q                       ",
"        R S T U V W X Y Z                       ",
"        `  ...+.@.#.$.%.                        ",
"      &.*.=.-.;.>.,.'.).                        ",
"      !.~.{.].^./.  (._.                        ",
"      :.<.[.}.|.    1.2.                        ",
"    3.4.5.6.      7.8.9.                        ",
"      0.a.b.        c.                          ",
"      d.e.          f.                          ",
"                    g.                          ",
"                    h.                          ",
"                    i.j.                        ",
"                    k.l.m.                      ",
"                                                "};
