/* XPM */
static char * wolf2_xpm[] = {
"24 25 164 2",
"  	c None",
". 	c #A8A6A7",
"+ 	c #B0AEAF",
"@ 	c #908F8F",
"# 	c #4F4E4F",
"$ 	c #717071",
"% 	c #767475",
"& 	c #969495",
"* 	c #3F3E3F",
"= 	c #949293",
"- 	c #4A484A",
"; 	c #525152",
"> 	c #888687",
", 	c #6C6B6C",
"' 	c #5E5C5D",
") 	c #8F8E90",
"! 	c #474547",
"~ 	c #706F71",
"{ 	c #7F7E7F",
"] 	c #9A999A",
"^ 	c #838283",
"/ 	c #787779",
"( 	c #B9B7BA",
"_ 	c #B9B8BA",
": 	c #B5B3B5",
"< 	c #7A797B",
"[ 	c #545254",
"} 	c #727173",
"| 	c #7E7C7D",
"1 	c #8C8A8B",
"2 	c #C3C2C3",
"3 	c #323031",
"4 	c #302E30",
"5 	c #515052",
"6 	c #79787A",
"7 	c #302E31",
"8 	c #4F4D50",
"9 	c #353336",
"0 	c #757375",
"a 	c #939192",
"b 	c #727172",
"c 	c #9E9C9D",
"d 	c #E6E4E5",
"e 	c #979697",
"f 	c #3A383A",
"g 	c #39373A",
"h 	c #3D3B3E",
"i 	c #424042",
"j 	c #363437",
"k 	c #B3B1B3",
"l 	c #A2A0A2",
"m 	c #8C8B8C",
"n 	c #C9C8C9",
"o 	c #636263",
"p 	c #3A383B",
"q 	c #3B393C",
"r 	c #615F61",
"s 	c #9B9A9C",
"t 	c #8A888A",
"u 	c #A7A5A8",
"v 	c #7E7D7F",
"w 	c #D6D4D6",
"x 	c #989799",
"y 	c #828183",
"z 	c #3F3D40",
"A 	c #333134",
"B 	c #3C3C3E",
"C 	c #878688",
"D 	c #2D2B2D",
"E 	c #B3B1B4",
"F 	c #838184",
"G 	c #767476",
"H 	c #8D8C8E",
"I 	c #999899",
"J 	c #5D5C5E",
"K 	c #5F5E60",
"L 	c #3E3D40",
"M 	c #9E9D9F",
"N 	c #6E6D6F",
"O 	c #7A787A",
"P 	c #9F9DA0",
"Q 	c #D0CED1",
"R 	c #D5D4D6",
"S 	c #BAB8BA",
"T 	c #A5A4A6",
"U 	c #A5A3A5",
"V 	c #474548",
"W 	c #C2C1C4",
"X 	c #B4B2B5",
"Y 	c #99989A",
"Z 	c #737274",
"` 	c #AEADAF",
" .	c #817F81",
"..	c #ACABAD",
"+.	c #C0BFC1",
"@.	c #858385",
"#.	c #8F8D8F",
"$.	c #C3C1C3",
"%.	c #BFBDC0",
"&.	c #CAC8CA",
"*.	c #929193",
"=.	c #C2C0C3",
"-.	c #B7B6B8",
";.	c #4D4B4E",
">.	c #A2A1A3",
",.	c #AFADB0",
"'.	c #7C7A7C",
").	c #908E91",
"!.	c #918F92",
"~.	c #8D8B8E",
"{.	c #737174",
"].	c #5C5A5C",
"^.	c #9A989A",
"/.	c #616062",
"(.	c #F3F2F4",
"_.	c #B8B7B9",
":.	c #89888A",
"<.	c #888688",
"[.	c #484649",
"}.	c #807E80",
"|.	c #6E6C6F",
"1.	c #6D6B6D",
"2.	c #8A898B",
"3.	c #A9A7AA",
"4.	c #C1BFC1",
"5.	c #6A696B",
"6.	c #7D7C7E",
"7.	c #FEFEFE",
"8.	c #DDDCDD",
"9.	c #636164",
"0.	c #7C7B7D",
"a.	c #B5B3B6",
"b.	c #9F9D9F",
"c.	c #878588",
"d.	c #888787",
"e.	c #AFADAF",
"f.	c #6C6A6C",
"g.	c #EDEBEE",
"h.	c #848385",
"i.	c #ADACAD",
"j.	c #FFFFFF",
"k.	c #F6F5F7",
"l.	c #373538",
"m.	c #CFCDD0",
"n.	c #B6B4B6",
"o.	c #9C9A9D",
"p.	c #9F9EA0",
"q.	c #E7E6E7",
"r.	c #ECECEC",
"s.	c #868486",
"t.	c #ADABAE",
"u.	c #9A999B",
"v.	c #AAA8AA",
"w.	c #8C8B8D",
"x.	c #D6D4D7",
"y.	c #8D8C8D",
"z.	c #B8B6B8",
"A.	c #B6B4B7",
"B.	c #9B999C",
"C.	c #7E7C7E",
"D.	c #A19FA1",
"E.	c #949294",
"F.	c #B7B5B7",
"G.	c #B2B0B2",
"                                                ",
"                                                ",
"                              .                 ",
"              +               @                 ",
"              #               $ %               ",
"            & * =             - ;               ",
"            > , '           ) ! ~               ",
"            { ] ^ / (   _ : < [ } |             ",
"            1 2 3 4 5 6 7 8 9 0 a b             ",
"            c d e f g g h i j k l b             ",
"            m n o 0 p q q r j s t 1             ",
"        u v w x g y z A B C h D E t F           ",
"          ) : G H I J K L M N O v y             ",
"          P Q 9 R S T U V W X Y Z `  .          ",
"          ..+.@.#.$.%.&.*.=.-.;.>.,.'.          ",
"        ).!.~.{.].^./.(._.:.<.[.}.|.1.          ",
"        2.Y 3.X 4.5.6.7.8.9.0.a.b.c.d.          ",
"            e.f.g.h.i.j.k.l.m.n.f.o.            ",
"              T #.p.w q.r.s.t.u.                ",
"                v.w.x.A y.z.A.                  ",
"                  s t B.t.C.                    ",
"                    Y D.E.                      ",
"                      F.G.                      ",
"                      v.                        ",
"                                                "};
