/* XPM */
static char * wold1t_xpm[] = {
"24 30 347 2",
"  	c None",
". 	c #5A7EA2",
"+ 	c #4C80AF",
"@ 	c #28323E",
"# 	c #3D4C5D",
"$ 	c #6888AA",
"% 	c #4A5F75",
"& 	c #808B95",
"* 	c #516A83",
"= 	c #425161",
"- 	c #58626C",
"; 	c #89929B",
"> 	c #5786B2",
", 	c #586875",
"' 	c #C6CBD0",
") 	c #939597",
"! 	c #8B9FB0",
"~ 	c #6B7A89",
"{ 	c #1E232E",
"] 	c #909091",
"^ 	c #BCC0C6",
"/ 	c #6287B0",
"( 	c #B0C0CD",
"_ 	c #CFE0EA",
": 	c #C1D4DF",
"< 	c #6D9DC5",
"[ 	c #B9CEDC",
"} 	c #9EB0BF",
"| 	c #49535F",
"1 	c #CBD1D5",
"2 	c #C2C4C6",
"3 	c #333C46",
"4 	c #ABB8C4",
"5 	c #9DA7AF",
"6 	c #4C5965",
"7 	c #8A8A8D",
"8 	c #D5D8DA",
"9 	c #44576C",
"0 	c #BCC5CA",
"a 	c #E5F0F2",
"b 	c #AAC3D4",
"c 	c #89A7C1",
"d 	c #B0C2CD",
"e 	c #737E88",
"f 	c #737A84",
"g 	c #E5EAEC",
"h 	c #7F8184",
"i 	c #6D7882",
"j 	c #D3D9DF",
"k 	c #858E98",
"l 	c #717C86",
"m 	c #5F6368",
"n 	c #A8B3BC",
"o 	c #CED8DC",
"p 	c #F3FDFD",
"q 	c #CFE0EB",
"r 	c #5889B4",
"s 	c #5D85A5",
"t 	c #A3B8C6",
"u 	c #BACDDA",
"v 	c #CAD4DC",
"w 	c #CBD3D9",
"x 	c #535960",
"y 	c #9DA5AB",
"z 	c #A1ACB9",
"A 	c #B1B6BB",
"B 	c #A3AEB9",
"C 	c #A8ADB2",
"D 	c #A5B8CC",
"E 	c #82A9CD",
"F 	c #E8F4F5",
"G 	c #AECAE2",
"H 	c #5690C3",
"I 	c #608BB1",
"J 	c #9DB9CE",
"K 	c #CBDFEC",
"L 	c #E1F2FB",
"M 	c #E4ECEF",
"N 	c #A1A8AE",
"O 	c #AFBEC8",
"P 	c #A4B1BF",
"Q 	c #434851",
"R 	c #A6A9AC",
"S 	c #C5D0DC",
"T 	c #5A90BE",
"U 	c #7EA6CD",
"V 	c #D2E0E8",
"W 	c #8CB0D1",
"X 	c #31567A",
"Y 	c #3B6C95",
"Z 	c #82A9CE",
"` 	c #CBE1F2",
" .	c #D7EAF7",
"..	c #CEE6FA",
"+.	c #E2EDF3",
"@.	c #A9B3BF",
"#.	c #51759B",
"$.	c #848A90",
"%.	c #ADC0CC",
"&.	c #6592BA",
"*.	c #4B87B8",
"=.	c #95B1CB",
"-.	c #A1BBD5",
";.	c #5B99CF",
">.	c #2D5379",
",.	c #335C81",
"'.	c #6C9FCE",
").	c #D2E3F1",
"!.	c #C9E3F6",
"~.	c #A2D3FA",
"{.	c #8CC4EE",
"].	c #D5E4EF",
"^.	c #B3C5D9",
"/.	c #728191",
"(.	c #4B78A1",
"_.	c #437FB0",
":.	c #3D6B93",
"<.	c #8095AC",
"[.	c #F2F4F5",
"}.	c #B6C5D8",
"|.	c #30577A",
"1.	c #396285",
"2.	c #DEE7EF",
"3.	c #E8EFF4",
"4.	c #9FC4DD",
"5.	c #92C5F0",
"6.	c #77B7EB",
"7.	c #8AB4D8",
"8.	c #DFEDF3",
"9.	c #474F5D",
"0.	c #2D5375",
"a.	c #3E76A5",
"b.	c #274A69",
"c.	c #5D6778",
"d.	c #C5C8CC",
"e.	c #C1C7CC",
"f.	c #E4EBF2",
"g.	c #2F5478",
"h.	c #3D5871",
"i.	c #F3F7F9",
"j.	c #B9BFC3",
"k.	c #CDCECE",
"l.	c #87A5C5",
"m.	c #4A79A3",
"n.	c #5B9CD3",
"o.	c #B5CBDF",
"p.	c #96B9D8",
"q.	c #2B3547",
"r.	c #264A69",
"s.	c #1A334A",
"t.	c #324052",
"u.	c #78899E",
"v.	c #8E8468",
"w.	c #6F6F6B",
"x.	c #8A95A0",
"y.	c #487DAA",
"z.	c #7CA2B6",
"A.	c #CBD2D9",
"B.	c #97987F",
"C.	c #C7C6B8",
"D.	c #ACC9E7",
"E.	c #84A6CB",
"F.	c #274767",
"G.	c #657D95",
"H.	c #B3CADA",
"I.	c #2D3B50",
"J.	c #295073",
"K.	c #A4ADB5",
"L.	c #5C6A78",
"M.	c #606E7E",
"N.	c #D0D4D8",
"O.	c #A6A8AB",
"P.	c #7F97B1",
"Q.	c #6FA2D2",
"R.	c #B4D8EF",
"S.	c #8DA8C2",
"T.	c #DDDFE1",
"U.	c #D1DCE8",
"V.	c #5F9BD3",
"W.	c #E6ECF1",
"X.	c #A1A5A9",
"Y.	c #396893",
"Z.	c #406385",
"`.	c #434A54",
" +	c #3C5D7E",
".+	c #6284A9",
"++	c #B2C1CC",
"@+	c #778A98",
"#+	c #485664",
"$+	c #3E5B78",
"%+	c #8595A6",
"&+	c #D8E2E8",
"*+	c #DDEAF1",
"=+	c #F4F5F6",
"-+	c #D5E0E8",
";+	c #B9D0E4",
">+	c #7595B7",
",+	c #B2C1CD",
"'+	c #EFF4F7",
")+	c #C5CBD2",
"!+	c #4684BA",
"~+	c #4C8CC2",
"{+	c #34638E",
"]+	c #5F7D9A",
"^+	c #CED6DC",
"/+	c #9CB0BD",
"(+	c #9DADB7",
"_+	c #C5CDD3",
":+	c #A5B3BE",
"<+	c #EDF3F6",
"[+	c #F4FCFC",
"}+	c #FDFDFD",
"|+	c #F8FBFB",
"1+	c #F4FAFA",
"2+	c #F6F9FA",
"3+	c #DDE7EE",
"4+	c #E7ECF0",
"5+	c #E3E5E6",
"6+	c #5D6D82",
"7+	c #497EAC",
"8+	c #49576A",
"9+	c #3A4455",
"0+	c #808890",
"a+	c #C6CCD2",
"b+	c #97A5B1",
"c+	c #8195A5",
"d+	c #C6D0D7",
"e+	c #CDD9E0",
"f+	c #EBF1F5",
"g+	c #F1F9FB",
"h+	c #F8FCFD",
"i+	c #FCFCFC",
"j+	c #C1CDD7",
"k+	c #D5DEE4",
"l+	c #969A9F",
"m+	c #5B626B",
"n+	c #455465",
"o+	c #404651",
"p+	c #393F48",
"q+	c #6E7881",
"r+	c #8294A2",
"s+	c #71808E",
"t+	c #A2AFBC",
"u+	c #E4EAED",
"v+	c #A2A6A9",
"w+	c #3D5169",
"x+	c #919AA4",
"y+	c #E2E3E4",
"z+	c #F3F3F4",
"A+	c #D6D8D9",
"B+	c #C8D4DD",
"C+	c #B3BBC1",
"D+	c #92999E",
"E+	c #2E5177",
"F+	c #587FA5",
"G+	c #39404D",
"H+	c #0F1D31",
"I+	c #2E3642",
"J+	c #424750",
"K+	c #444950",
"L+	c #999DA2",
"M+	c #C4D1DA",
"N+	c #748189",
"O+	c #0D141F",
"P+	c #3A3D42",
"Q+	c #ECEDED",
"R+	c #D5D5D6",
"S+	c #7C7E83",
"T+	c #616C77",
"U+	c #56718C",
"V+	c #325C85",
"W+	c #46607E",
"X+	c #5E8EBA",
"Y+	c #565D67",
"Z+	c #162E44",
"`+	c #234059",
" @	c #28303E",
".@	c #2F333A",
"+@	c #9FA9B3",
"@@	c #7B8E9D",
"#@	c #4D5A66",
"$@	c #7F8D98",
"%@	c #E2E6E8",
"&@	c #989CA0",
"*@	c #99A5B0",
"=@	c #C5D1D9",
"-@	c #BDCBD5",
";@	c #3E73A1",
">@	c #6990B8",
",@	c #163049",
"'@	c #25425A",
")@	c #2D485B",
"!@	c #1A2A38",
"~@	c #303439",
"{@	c #79828B",
"]@	c #646F7A",
"^@	c #9BA1A7",
"/@	c #909396",
"(@	c #5F666E",
"_@	c #DCE6EA",
":@	c #C5D2D7",
"<@	c #9BA6AF",
"[@	c #4B6E90",
"}@	c #1E2B3E",
"|@	c #132336",
"1@	c #2C485C",
"2@	c #2D4556",
"3@	c #182735",
"4@	c #1F242C",
"5@	c #6C6F72",
"6@	c #71777D",
"7@	c #8D98A3",
"8@	c #A9B6C1",
"9@	c #86A6C4",
"0@	c #445A72",
"a@	c #4876A1",
"b@	c #3F4650",
"c@	c #102134",
"d@	c #243A4C",
"e@	c #2E495D",
"f@	c #0D1A28",
"g@	c #4E5761",
"h@	c #A3B1BC",
"i@	c #91A6BB",
"j@	c #7A92AA",
"k@	c #22405C",
"l@	c #335373",
"m@	c #333B49",
"n@	c #142539",
"o@	c #192E43",
"p@	c #1F384D",
"q@	c #A5AEB2",
"r@	c #A0AEB8",
"s@	c #365572",
"t@	c #14293F",
"u@	c #424B5A",
"v@	c #4A4F58",
"w@	c #19273C",
"x@	c #13253A",
"y@	c #929BA3",
"z@	c #334151",
"A@	c #14293D",
"B@	c #686F77",
"C@	c #4A505A",
"D@	c #333F4E",
"E@	c #273445",
"F@	c #353E4C",
"                                                ",
"                                                ",
"          .                         +           ",
"        @ # $                     % & *         ",
"        = - ; >                 , ' ) !         ",
"        ~ { ] ^ / ( _ : < [ } | 1 2 3 4         ",
"        5 6 7 8 9 0 a b c d e f g h i j         ",
"        k l m n o p q r s t u v w x y z         ",
"        A B C D E F G H I J K L M N O P         ",
"        Q R S T U V W X Y Z `  ...+.@.#.        ",
"        $.%.&.*.=.-.;.>.,.'.).!.~.{.].^.        ",
"        /.(._.:.<.[.}.|.1.2.3.4.5.6.7.8.        ",
"      9.0.a.b.c.d.e.f.g.h.i.j.k.l.m.n.o.p.      ",
"      q.r.s.t.u.v.w.x.y.z.A.B.C.D.E.F.G.H.      ",
"      I.J.K.L.M.N.O.P.Q.R.S.T.U.V.W.X.Y.Z.      ",
"    `. +.+++@+#+$+%+&+*+=+-+;+>+,+'+)+!+~+      ",
"      {+]+^+/+(+_+:+<+[+}+|+1+2+3+4+5+6+7+      ",
"    8+9+0+a+b+c+d+e+f+g+}+}+h+i+j+k+l+m+n+      ",
"      o+p+q+r+s+t+u+v+w+x+y+z+A+B+C+D+E+F+      ",
"      G+H+I+J+K+L+M+N+O+P+Q+R+S+T+U+V+W+X+      ",
"        Y+Z+`+ @.@+@@@#@$@%@&@*@=@-@;@>@        ",
"          ,@'@)@!@~@{@]@^@/@(@_@:@<@[@          ",
"          }@|@1@2@3@4@5@6@7@8@9@0@a@            ",
"            b@c@d@e@f@g@h@i@j@k@l@              ",
"              m@n@o@p@q@r@s@t@u@                ",
"                v@w@x@y@z@A@B@                  ",
"                    C@D@E@                      ",
"                      F@                        ",
"                                                ",
"                                                "};
